<?xml version="1.0" encoding="UTF-8"?>
<svg width="24px"  height="24px"  viewBox="0 0 24 24"  version="1.1" xmlns="http://www.w3.org/2000/svg" xmlns:xlink="http://www.w3.org/1999/xlink">
    <title>Iconly/Light-Outline/Calendar</title>
    <g id="Iconly/Light-Outline/Calendar" stroke="none" stroke-width="1" fill="none" fill-rule="evenodd">
        <g id="Calendar" transform="translate(2.000000, 1.000000)" fill="#000000" >
            <path d="M13.7935,-6.03961325e-14 C14.2075,-6.03961325e-14 14.5435,0.336 14.5435,0.75 L14.54396,1.59781054 C16.0040654,1.69791596 17.2167254,2.19804662 18.075,3.0581 C19.012,3.9991 19.505,5.3521 19.5000377,6.9751 L19.5000377,16.0981 C19.5000377,19.4301 17.384,21.5001 13.979,21.5001 L5.521,21.5001 C2.116,21.5001 0,19.4011 0,16.0221 L0,6.9731 C0,3.83029205 1.88705568,1.8129398 4.96468634,1.59815387 L4.9653,0.75 C4.9653,0.336 5.3013,-6.03961325e-14 5.7153,-6.03961325e-14 C6.1293,-6.03961325e-14 6.4653,0.336 6.4653,0.75 L6.465,1.579 L13.043,1.579 L13.0435,0.75 C13.0435,0.336 13.3795,-6.03961325e-14 13.7935,-6.03961325e-14 Z M18,8.904 L1.5,8.904 L1.5,16.0221 C1.5,18.5881 2.928,20.0001 5.521,20.0001 L13.979,20.0001 C16.572,20.0001 18.0000357,18.6141 18.0000357,16.0981 L18,8.904 Z M14.2012,15.1963 C14.6152,15.1963 14.9512,15.5323 14.9512,15.9463 C14.9512,16.3603 14.6152,16.6963 14.2012,16.6963 C13.7872,16.6963 13.4472,16.3603 13.4472,15.9463 C13.4472,15.5323 13.7782,15.1963 14.1922,15.1963 L14.2012,15.1963 Z M9.7637,15.1963 C10.1777,15.1963 10.5137,15.5323 10.5137,15.9463 C10.5137,16.3603 10.1777,16.6963 9.7637,16.6963 C9.3497,16.6963 9.0097,16.3603 9.0097,15.9463 C9.0097,15.5323 9.3407,15.1963 9.7547,15.1963 L9.7637,15.1963 Z M5.3169,15.1963 C5.7309,15.1963 6.0669,15.5323 6.0669,15.9463 C6.0669,16.3603 5.7309,16.6963 5.3169,16.6963 C4.9029,16.6963 4.5619,16.3603 4.5619,15.9463 C4.5619,15.5323 4.8939,15.1963 5.3079,15.1963 L5.3169,15.1963 Z M14.2012,11.3096 C14.6152,11.3096 14.9512,11.6456 14.9512,12.0596 C14.9512,12.4736 14.6152,12.8096 14.2012,12.8096 C13.7872,12.8096 13.4472,12.4736 13.4472,12.0596 C13.4472,11.6456 13.7782,11.3096 14.1922,11.3096 L14.2012,11.3096 Z M9.7637,11.3096 C10.1777,11.3096 10.5137,11.6456 10.5137,12.0596 C10.5137,12.4736 10.1777,12.8096 9.7637,12.8096 C9.3497,12.8096 9.0097,12.4736 9.0097,12.0596 C9.0097,11.6456 9.3407,11.3096 9.7547,11.3096 L9.7637,11.3096 Z M5.3169,11.3096 C5.7309,11.3096 6.0669,11.6456 6.0669,12.0596 C6.0669,12.4736 5.7309,12.8096 5.3169,12.8096 C4.9029,12.8096 4.5619,12.4736 4.5619,12.0596 C4.5619,11.6456 4.8939,11.3096 5.3079,11.3096 L5.3169,11.3096 Z M13.043,3.079 L6.465,3.079 L6.4653,4.041 C6.4653,4.455 6.1293,4.791 5.7153,4.791 C5.3013,4.791 4.9653,4.455 4.9653,4.041 L4.96476779,3.10170243 C2.72453716,3.2898928 1.5,4.64785567 1.5,6.9731 L1.5,7.404 L18,7.404 L18.0000357,6.9731 C18.004,5.7381 17.672,4.7781 17.013,4.1181 C16.4345144,3.53790796 15.5888563,3.19140086 14.5443509,3.10218199 L14.5435,4.041 C14.5435,4.455 14.2075,4.791 13.7935,4.791 C13.3795,4.791 13.0435,4.455 13.0435,4.041 L13.043,3.079 Z" id="Combined-Shape"></path>
        </g>
    </g>
</svg>