<?xml version="1.0" standalone="no"?>
<!DOCTYPE svg PUBLIC "-//W3C//DTD SVG 20010904//EN"
 "http://www.w3.org/TR/2001/REC-SVG-20010904/DTD/svg10.dtd">
<svg version="1.0" xmlns="http://www.w3.org/2000/svg"
 width="404.000000pt" height="435.000000pt" viewBox="0 0 404.000000 435.000000"
 preserveAspectRatio="xMidYMid meet">

<g transform="translate(0.000000,435.000000) scale(0.100000,-0.100000)"
fill="#000000" stroke="none">
<path d="M1860 4284 c-98 -27 -145 -52 -855 -463 -82 -48 -262 -152 -400 -231
-226 -130 -258 -151 -330 -224 -58 -59 -90 -102 -118 -156 -75 -151 -71 -103
-75 -998 -2 -673 0 -817 12 -888 27 -155 122 -313 241 -399 30 -22 139 -88
242 -148 134 -77 196 -107 220 -107 18 0 90 25 161 56 70 31 179 77 242 103
579 239 1311 668 1385 812 23 44 19 96 -8 114 -44 28 -133 53 -257 69 -69 9
-165 23 -215 31 -49 7 -148 21 -220 30 -252 32 -513 99 -660 170 -96 46 -199
135 -260 225 -176 260 -125 594 132 866 87 92 282 223 396 266 28 11 64 26 80
34 51 27 266 83 381 100 267 39 669 -5 837 -91 42 -22 108 -103 115 -142 13
-70 -16 -204 -54 -246 -24 -28 -111 -67 -148 -67 -18 0 -90 17 -160 37 -128
37 -130 37 -324 37 -168 1 -209 -2 -297 -22 -286 -64 -560 -254 -589 -408 -14
-74 49 -156 145 -189 82 -28 606 -114 701 -115 31 0 80 -6 110 -14 30 -8 80
-17 110 -21 80 -10 315 -64 385 -87 33 -12 81 -31 106 -44 26 -13 49 -21 51
-18 11 11 177 -165 202 -214 71 -139 73 -279 7 -410 -103 -205 -224 -310 -655
-569 -377 -227 -660 -375 -991 -518 -88 -37 -166 -74 -174 -81 -16 -15 -25 -9
219 -149 237 -135 303 -158 460 -158 170 0 215 18 620 253 513 296 752 435
899 518 214 123 317 234 378 407 l28 80 3 832 c3 807 2 835 -17 918 -23 97
-45 144 -106 231 -78 109 -93 119 -535 374 -146 84 -292 168 -325 188 -265
155 -612 352 -665 379 -36 18 -92 39 -125 47 -75 20 -231 20 -305 0z m1591
-1151 c202 -103 128 -403 -99 -403 -119 0 -203 77 -210 194 -11 176 153 287
309 209z"/>
</g>
</svg>
