<?xml version="1.0" standalone="no"?>
<!DOCTYPE svg PUBLIC "-//W3C//DTD SVG 20010904//EN"
 "http://www.w3.org/TR/2001/REC-SVG-20010904/DTD/svg10.dtd">
<svg version="1.0" xmlns="http://www.w3.org/2000/svg"
 width="512.000000pt" height="512.000000pt" viewBox="0 0 512.000000 512.000000"
 preserveAspectRatio="xMidYMid meet">

<g transform="translate(0.000000,512.000000) scale(0.100000,-0.100000)"
fill="#000000" stroke="none">
<path d="M2430 5114 c-229 -26 -360 -54 -508 -109 -392 -147 -720 -416 -943
-775 -210 -339 -307 -778 -259 -1170 78 -631 528 -1501 1274 -2465 176 -228
403 -501 455 -548 69 -62 153 -62 222 0 52 47 279 320 455 548 671 867 1102
1655 1238 2267 35 157 46 259 46 423 -1 480 -193 939 -540 1285 -286 287 -623
460 -1020 525 -94 15 -352 27 -420 19z m247 -925 c373 -50 682 -318 783 -679
27 -95 37 -286 21 -390 -47 -296 -241 -556 -516 -690 -162 -79 -328 -109 -497
-90 -132 15 -199 34 -313 90 -275 134 -469 394 -516 690 -16 104 -6 295 21
390 125 446 566 741 1017 679z"/>
</g>
</svg>
