<?xml version="1.0" standalone="no"?>
<!DOCTYPE svg PUBLIC "-//W3C//DTD SVG 20010904//EN"
 "http://www.w3.org/TR/2001/REC-SVG-20010904/DTD/svg10.dtd">
<svg version="1.0" xmlns="http://www.w3.org/2000/svg"
 width="512.000000pt" height="512.000000pt" viewBox="0 0 512.000000 512.000000"
 preserveAspectRatio="xMidYMid meet">

<g transform="translate(0.000000,512.000000) scale(0.100000,-0.100000)"
fill="#000000" stroke="none">
<path d="M894 5105 c-124 -27 -147 -45 -470 -369 -282 -281 -304 -306 -337
-376 -55 -116 -68 -178 -74 -342 -6 -165 7 -274 57 -464 301 -1143 1647 -2647
2935 -3279 382 -187 671 -269 955 -270 174 0 262 18 383 77 78 38 98 57 379
337 314 314 332 337 372 470 21 70 21 202 0 272 -36 120 -51 138 -448 537
-209 211 -408 403 -441 427 -198 141 -453 121 -619 -48 -50 -51 -70 -81 -104
-162 -24 -54 -55 -115 -70 -135 -96 -130 -280 -212 -437 -196 -234 25 -583
237 -879 533 -358 358 -569 770 -518 1010 24 112 103 229 196 291 22 16 70 41
106 56 104 44 129 59 178 101 166 145 202 417 81 610 -35 57 -725 754 -809
819 -67 51 -155 91 -234 105 -75 14 -125 13 -202 -4z"/>
</g>
</svg>
