<?xml version="1.0" standalone="no"?>
<!DOCTYPE svg PUBLIC "-//W3C//DTD SVG 20010904//EN"
 "http://www.w3.org/TR/2001/REC-SVG-20010904/DTD/svg10.dtd">
<svg version="1.0" xmlns="http://www.w3.org/2000/svg"
 width="1150.000000pt" height="435.000000pt" viewBox="0 0 1150.000000 435.000000"
 preserveAspectRatio="xMidYMid meet">

<g transform="translate(0.000000,435.000000) scale(0.100000,-0.100000)"
fill="#000000" stroke="none">
<path d="M1860 4284 c-98 -27 -145 -52 -855 -463 -82 -48 -262 -152 -400 -231
-226 -130 -258 -151 -330 -224 -58 -59 -90 -102 -118 -156 -75 -151 -71 -103
-75 -998 -2 -673 0 -817 12 -888 27 -155 122 -313 241 -399 30 -22 139 -88
242 -148 134 -77 196 -107 220 -107 18 0 90 25 161 56 70 31 179 77 242 103
579 239 1311 668 1385 812 23 44 19 96 -8 114 -44 28 -133 53 -257 69 -69 9
-165 23 -215 31 -49 7 -148 21 -220 30 -252 32 -513 99 -660 170 -96 46 -199
135 -260 225 -176 260 -125 594 132 866 87 92 282 223 396 266 28 11 64 26 80
34 51 27 266 83 381 100 267 39 669 -5 837 -91 42 -22 108 -103 115 -142 13
-70 -16 -204 -54 -246 -24 -28 -111 -67 -148 -67 -18 0 -90 17 -160 37 -128
37 -130 37 -324 37 -168 1 -209 -2 -297 -22 -286 -64 -560 -254 -589 -408 -14
-74 49 -156 145 -189 82 -28 606 -114 701 -115 31 0 80 -6 110 -14 30 -8 80
-17 110 -21 80 -10 315 -64 385 -87 33 -12 81 -31 106 -44 26 -13 49 -21 51
-18 11 11 177 -165 202 -214 71 -139 73 -279 7 -410 -103 -205 -224 -310 -655
-569 -377 -227 -660 -375 -991 -518 -88 -37 -166 -74 -174 -81 -16 -15 -25 -9
219 -149 237 -135 303 -158 460 -158 170 0 215 18 620 253 513 296 752 435
899 518 214 123 317 234 378 407 l28 80 3 832 c3 807 2 835 -17 918 -23 97
-45 144 -106 231 -78 109 -93 119 -535 374 -146 84 -292 168 -325 188 -265
155 -612 352 -665 379 -36 18 -92 39 -125 47 -75 20 -231 20 -305 0z m1591
-1151 c202 -103 128 -403 -99 -403 -119 0 -203 77 -210 194 -11 176 153 287
309 209z"/>
<path d="M4450 2889 c-121 -23 -211 -80 -255 -161 -24 -44 -29 -65 -30 -123 0
-61 4 -76 30 -118 46 -74 110 -108 342 -182 225 -73 263 -94 263 -150 0 -47
-38 -89 -97 -106 -100 -29 -269 -7 -401 52 -34 15 -69 26 -77 23 -8 -4 -29
-35 -46 -70 -30 -61 -31 -65 -15 -83 22 -24 114 -66 188 -85 292 -76 586 -9
664 150 21 44 27 69 27 132 1 92 -10 118 -82 186 -68 63 -125 88 -325 139 -92
24 -179 53 -194 64 -30 22 -40 69 -22 103 34 64 218 81 388 35 127 -34 137
-33 160 13 45 88 37 109 -51 141 -123 45 -344 64 -467 40z"/>
<path d="M5266 2871 c-12 -18 -18 -100 -12 -135 l7 -36 95 0 c92 0 95 1 104
26 13 33 13 69 -1 117 l-10 37 -89 0 c-49 0 -91 -4 -94 -9z"/>
<path d="M5783 2870 c-25 -10 -36 -52 -31 -120 l3 -45 280 -5 c312 -6 317 -7
349 -73 33 -71 12 -153 -51 -194 -24 -16 -56 -18 -303 -20 l-275 -2 0 -263 0
-263 90 -3 c76 -2 92 0 102 14 9 13 13 64 13 176 l0 158 73 1 c200 2 383 16
412 31 17 9 56 43 87 75 68 72 82 114 76 233 -6 105 -33 174 -93 229 -81 74
-84 75 -415 78 -163 1 -305 -2 -317 -7z"/>
<path d="M7030 2872 c-21 -6 -44 -45 -137 -232 -62 -124 -150 -304 -195 -400
l-83 -175 0 -90 0 -90 67 -3 c109 -5 104 -11 218 273 39 99 95 236 124 305 29
69 58 140 66 158 7 17 19 32 27 32 16 0 28 -26 123 -265 37 -93 84 -206 103
-250 19 -44 49 -114 66 -157 38 -90 55 -101 152 -96 l64 3 0 90 0 90 -144 295
c-79 162 -166 341 -192 397 -42 86 -54 103 -81 112 -33 12 -137 13 -178 3z"/>
<path d="M7815 2868 c-3 -7 -4 -231 -3 -498 l3 -485 392 -3 393 -2 5 23 c3 12
5 52 3 87 l-3 65 -287 3 -288 2 -2 408 -3 407 -103 3 c-76 2 -104 -1 -107 -10z"/>
<path d="M9086 2858 c-8 -13 -99 -196 -201 -408 -176 -363 -187 -389 -192
-456 -8 -100 2 -114 77 -114 85 0 103 12 138 89 34 73 205 492 216 529 19 58
68 152 80 152 15 0 58 -89 115 -240 52 -139 176 -441 195 -479 23 -43 44 -51
130 -51 l76 0 0 80 c0 77 -2 84 -63 212 -154 324 -226 471 -282 583 l-60 120
-107 3 c-102 3 -108 2 -122 -20z"/>
<path d="M9620 2855 c-11 -29 -12 -87 -2 -123 4 -12 30 -50 57 -85 141 -175
279 -343 286 -347 4 -3 9 -94 11 -203 2 -162 6 -199 18 -207 8 -6 56 -9 105
-8 l90 3 3 203 c2 174 5 205 20 224 9 11 42 51 72 87 114 137 216 264 243 304
29 44 36 103 17 151 -9 24 -14 26 -69 26 -32 0 -73 -3 -91 -6 -36 -8 -50 -24
-198 -234 -49 -69 -95 -126 -103 -128 -8 -1 -61 66 -131 166 -65 93 -125 176
-134 183 -11 9 -49 15 -100 18 -83 3 -84 3 -94 -24z"/>
<path d="M10841 2863 c-11 -10 -82 -146 -156 -303 -74 -157 -161 -336 -193
-398 -56 -111 -57 -116 -57 -195 l0 -82 70 -3 c38 -2 80 0 93 3 27 7 37 29
168 360 122 308 166 405 181 405 15 0 61 -88 96 -185 14 -38 42 -108 62 -155
20 -47 63 -150 95 -230 90 -225 69 -200 171 -200 l88 0 7 36 c14 77 -3 129
-147 428 -233 487 -251 520 -279 527 -14 4 -59 7 -101 8 -60 1 -82 -3 -98 -16z"/>
<path d="M5257 2414 c-9 -9 -7 -458 2 -499 l6 -30 100 0 100 0 0 265 0 265
-101 3 c-55 1 -103 0 -107 -4z"/>
<path d="M9248 1450 c-82 -14 -144 -64 -193 -155 -22 -39 -29 -68 -32 -131 -5
-71 -2 -87 20 -135 29 -64 81 -120 140 -152 35 -19 58 -22 142 -22 140 0 194
32 151 90 -11 15 -24 18 -67 15 -144 -8 -194 6 -236 69 -42 62 -42 179 0 243
12 18 42 43 67 56 37 19 54 22 95 17 130 -17 146 -7 120 75 -9 28 -121 44
-207 30z"/>
<path d="M5056 1413 c-8 -50 -8 -481 0 -522 6 -29 9 -31 54 -31 45 0 48 2 54
31 8 41 8 472 0 522 -7 37 -7 37 -54 37 -47 0 -47 0 -54 -37z"/>
<path d="M5903 1438 c-6 -10 -12 -178 -13 -346 0 -6 -231 198 -298 262 -40 39
-76 72 -81 74 -27 9 -35 -36 -43 -256 -10 -270 -7 -308 27 -316 13 -3 35 -2
48 3 21 8 26 19 32 66 3 31 4 89 0 129 -4 41 -4 92 0 115 l7 41 26 -19 c15
-10 54 -45 87 -76 33 -32 87 -80 120 -108 33 -27 80 -69 103 -93 48 -48 65
-54 78 -26 13 27 17 503 5 535 -9 23 -16 27 -50 27 -22 0 -43 -6 -48 -12z"/>
<path d="M6315 1428 c-3 -13 -4 -144 -3 -293 l3 -270 45 0 45 0 7 45 c3 25 7
75 7 112 l1 67 113 3 112 3 3 29 c5 39 -5 74 -20 73 -7 0 -57 1 -110 1 l-98 2
0 70 0 69 128 3 127 3 3 53 3 52 -180 0 c-179 0 -181 0 -186 -22z"/>
<path d="M7107 1436 c-46 -17 -59 -27 -123 -93 -96 -99 -108 -235 -31 -356 59
-92 141 -136 253 -137 176 0 314 146 301 320 -5 80 -28 132 -83 187 -65 65
-130 93 -211 93 -37 -1 -85 -7 -106 -14z m180 -107 c30 -15 55 -37 75 -68 27
-42 29 -52 26 -117 -4 -85 -35 -141 -95 -169 -47 -23 -127 -24 -169 -2 -45 23
-92 81 -100 122 -33 176 114 306 263 234z"/>
<path d="M7719 1433 c-3 -36 1 -67 9 -75 5 -5 35 -12 66 -15 l56 -6 0 -226 c0
-124 4 -232 9 -239 5 -9 25 -12 57 -10 l49 3 3 238 c2 179 5 237 15 238 6 0
33 0 58 -1 55 -2 71 14 67 67 l-3 38 -192 3 c-179 2 -193 1 -194 -15z"/>
<path d="M8377 1443 c-4 -3 -7 -131 -7 -283 0 -239 2 -279 16 -291 11 -9 58
-12 182 -10 212 2 214 3 210 50 -3 33 -6 36 -43 43 -22 4 -86 7 -142 7 l-103
1 0 70 0 70 118 0 c127 0 142 5 142 50 0 45 -15 50 -142 50 l-118 0 0 70 0 69
143 3 142 3 3 53 3 52 -199 0 c-109 0 -202 -3 -205 -7z"/>
<path d="M9776 1435 c-8 -22 -6 -455 2 -520 l7 -50 45 0 45 0 3 118 3 117 138
0 139 0 3 -114 c2 -63 8 -118 12 -122 11 -11 83 -11 94 0 13 12 16 542 3 566
-8 15 -21 20 -54 20 -53 0 -56 -6 -56 -142 l0 -98 -140 0 -139 0 -3 118 -3
117 -46 3 c-36 2 -48 -1 -53 -13z"/>
</g>
</svg>
